<?xml version="1.0" encoding="UTF-8" standalone="no"?>
<svg
   xmlns:dc="http://purl.org/dc/elements/1.1/"
   xmlns:cc="http://creativecommons.org/ns#"
   xmlns:rdf="http://www.w3.org/1999/02/22-rdf-syntax-ns#"
   xmlns:svg="http://www.w3.org/2000/svg"
   xmlns="http://www.w3.org/2000/svg"
   xmlns:sodipodi="http://sodipodi.sourceforge.net/DTD/sodipodi-0.dtd"
   xmlns:inkscape="http://www.inkscape.org/namespaces/inkscape"
   inkscape:version="1.0 (4035a4f, 2020-05-01)"
   height="27.723846"
   width="20.792879"
   sodipodi:docname="icon2.svg"
   id="svg119"
   version="1.1"
   viewBox="0 0 20.792879 27.723846">
  <metadata
     id="metadata125">
    <rdf:RDF>
      <cc:Work
         rdf:about="">
        <dc:format>image/svg+xml</dc:format>
        <dc:type
           rdf:resource="http://purl.org/dc/dcmitype/StillImage" />
        <dc:title></dc:title>
      </cc:Work>
    </rdf:RDF>
  </metadata>
  <defs
     id="defs123" />
  <sodipodi:namedview
     inkscape:current-layer="svg119"
     inkscape:window-maximized="1"
     inkscape:window-y="0"
     inkscape:window-x="0"
     inkscape:cy="109.01435"
     inkscape:cx="192"
     inkscape:zoom="1.6328125"
     showgrid="false"
     id="namedview121"
     inkscape:window-height="1007"
     inkscape:window-width="1920"
     inkscape:pageshadow="2"
     inkscape:pageopacity="0"
     guidetolerance="10"
     gridtolerance="10"
     objecttolerance="10"
     borderopacity="1"
     bordercolor="#666666"
     pagecolor="#ffffff" />
  <path
     style="stroke-width:0.0541481"
     id="path117"
     d="M 9.3279889,27.164489 C 1.4603749,15.758783 0,14.588208 0,10.39644 0,4.6546269 4.6546269,0 10.39644,0 c 5.741813,0 10.39644,4.6546269 10.39644,10.39644 0,4.191768 -1.460376,5.362343 -9.327989,16.768049 -0.516303,0.745836 -1.6206539,0.745783 -2.1369021,0 z M 10.39644,14.72829 c 2.392426,0 4.33185,-1.939424 4.33185,-4.33185 0,-2.3924269 -1.939424,-4.3318502 -4.33185,-4.3318502 -2.3924269,0 -4.3318502,1.9394233 -4.3318502,4.3318502 0,2.392426 1.9394233,4.33185 4.3318502,4.33185 z" />
</svg>
