<?xml version="1.0" encoding="UTF-8" standalone="no"?>
<svg
   xmlns:dc="http://purl.org/dc/elements/1.1/"
   xmlns:cc="http://creativecommons.org/ns#"
   xmlns:rdf="http://www.w3.org/1999/02/22-rdf-syntax-ns#"
   xmlns:svg="http://www.w3.org/2000/svg"
   xmlns="http://www.w3.org/2000/svg"
   xmlns:sodipodi="http://sodipodi.sourceforge.net/DTD/sodipodi-0.dtd"
   xmlns:inkscape="http://www.inkscape.org/namespaces/inkscape"
   inkscape:version="1.0 (4035a4f, 2020-05-01)"
   height="31.627254"
   width="24.394714"
   sodipodi:docname="icon.svg"
   id="svg58"
   version="1.1"
   viewBox="0 0 24.394714 31.627254">
  <metadata
     id="metadata64">
    <rdf:RDF>
      <cc:Work
         rdf:about="">
        <dc:format>image/svg+xml</dc:format>
        <dc:type
           rdf:resource="http://purl.org/dc/dcmitype/StillImage" />
        <dc:title></dc:title>
      </cc:Work>
    </rdf:RDF>
  </metadata>
  <defs
     id="defs62" />
  <sodipodi:namedview
     inkscape:current-layer="svg58"
     inkscape:window-maximized="1"
     inkscape:window-y="0"
     inkscape:window-x="0"
     inkscape:cy="32.976345"
     inkscape:cx="2.5683096"
     inkscape:zoom="4.4746601"
     showgrid="false"
     id="namedview60"
     inkscape:window-height="1007"
     inkscape:window-width="1920"
     inkscape:pageshadow="2"
     inkscape:pageopacity="0"
     guidetolerance="10"
     gridtolerance="10"
     objecttolerance="10"
     borderopacity="1"
     bordercolor="#666666"
     pagecolor="#ffffff" />
  <path
     sodipodi:nodetypes="cssscczzzzz"
     style="stroke-width:0.0626438"
     id="path56"
     d="M 10.943825,30.989142 C 1.7133473,17.977556 0,16.64217 0,11.860217 0,5.3099799 5.4609219,0 12.197357,0 c 6.736435,0 12.197357,5.3099799 12.197357,11.860217 0,4.781953 -1.713348,6.117339 -10.943825,19.128925 -0.605738,0.850847 -1.90139,0.850785 -2.507064,0 z m 1.253532,-15.433468 c 1.791356,0.06186 3.747719,-1.708399 3.811462,-3.695457 0.06375,-1.9870579 -1.902879,-3.6932805 -3.811462,-3.6269024 -1.908583,0.066378 -3.8146498,1.7750244 -3.7548228,3.6269024 0.059827,1.851878 1.9634668,3.633594 3.7548228,3.695457 z" />
</svg>
