<?xml version="1.0" encoding="UTF-8" standalone="no"?>
<svg
   xmlns:dc="http://purl.org/dc/elements/1.1/"
   xmlns:cc="http://creativecommons.org/ns#"
   xmlns:rdf="http://www.w3.org/1999/02/22-rdf-syntax-ns#"
   xmlns:svg="http://www.w3.org/2000/svg"
   xmlns="http://www.w3.org/2000/svg"
   xmlns:sodipodi="http://sodipodi.sourceforge.net/DTD/sodipodi-0.dtd"
   xmlns:inkscape="http://www.inkscape.org/namespaces/inkscape"
   inkscape:version="1.0 (4035a4f, 2020-05-01)"
   height="33.066174"
   width="24.79962"
   sodipodi:docname="icon3.svg"
   id="svg180"
   version="1.1"
   viewBox="0 0 24.79962 33.066174">
  <metadata
     id="metadata186">
    <rdf:RDF>
      <cc:Work
         rdf:about="">
        <dc:format>image/svg+xml</dc:format>
        <dc:type
           rdf:resource="http://purl.org/dc/dcmitype/StillImage" />
        <dc:title></dc:title>
      </cc:Work>
    </rdf:RDF>
  </metadata>
  <defs
     id="defs184" />
  <sodipodi:namedview
     inkscape:current-layer="svg180"
     inkscape:window-maximized="1"
     inkscape:window-y="0"
     inkscape:window-x="0"
     inkscape:cy="64.314439"
     inkscape:cx="-3.5553366"
     inkscape:zoom="1.1545728"
     showgrid="false"
     id="namedview182"
     inkscape:window-height="1007"
     inkscape:window-width="1920"
     inkscape:pageshadow="2"
     inkscape:pageopacity="0"
     guidetolerance="10"
     gridtolerance="10"
     objecttolerance="10"
     borderopacity="1"
     bordercolor="#666666"
     pagecolor="#ffffff" />
  <path
     style="stroke-width:0.0645824"
     id="path178"
     d="M 11.12547,32.39903 C 1.74179,18.79547 0,17.39933 0,12.39982 0,5.55157 5.55156,0 12.39981,0 c 6.84825,0 12.39981,5.55157 12.39981,12.39982 0,4.99951 -1.74179,6.39565 -11.12547,19.99921 -0.61579,0.88956 -1.93295,0.88949 -2.54868,0 z M 12.39981,17.5664 c 2.85344,0 5.16659,-2.31314 5.16659,-5.16658 0,-2.85344 -2.31315,-5.16659 -5.16659,-5.16659 -2.85344,0 -5.16659,2.31315 -5.16659,5.16659 0,2.85344 2.31315,5.16658 5.16659,5.16658 z" />
</svg>
