<?xml version="1.0" encoding="UTF-8" standalone="no"?>
<svg
   xmlns:dc="http://purl.org/dc/elements/1.1/"
   xmlns:cc="http://creativecommons.org/ns#"
   xmlns:rdf="http://www.w3.org/1999/02/22-rdf-syntax-ns#"
   xmlns:svg="http://www.w3.org/2000/svg"
   xmlns="http://www.w3.org/2000/svg"
   xmlns:sodipodi="http://sodipodi.sourceforge.net/DTD/sodipodi-0.dtd"
   xmlns:inkscape="http://www.inkscape.org/namespaces/inkscape"
   height="72.234497"
   width="54.175861"
   inkscape:version="1.0 (4035a4f, 2020-05-01)"
   sodipodi:docname="m-12.svg"
   id="svg84"
   version="1.1"
   viewBox="0 0 54.175861 72.234497">
  <metadata
     id="metadata90">
    <rdf:RDF>
      <cc:Work
         rdf:about="">
        <dc:format>image/svg+xml</dc:format>
        <dc:type
           rdf:resource="http://purl.org/dc/dcmitype/StillImage" />
        <dc:title></dc:title>
      </cc:Work>
    </rdf:RDF>
  </metadata>
  <defs
     id="defs88" />
  <sodipodi:namedview
     inkscape:current-layer="svg84"
     inkscape:window-maximized="0"
     inkscape:window-y="0"
     inkscape:window-x="960"
     inkscape:cy="18.190186"
     inkscape:cx="22.856359"
     inkscape:zoom="8"
     showgrid="false"
     id="namedview86"
     inkscape:window-height="1006"
     inkscape:window-width="959"
     inkscape:pageshadow="2"
     inkscape:pageopacity="0"
     guidetolerance="10"
     gridtolerance="10"
     objecttolerance="10"
     borderopacity="1"
     bordercolor="#666666"
     pagecolor="#ffffff" />
  <path
     style="fill:#00ff00;fill-opacity:1;fill-rule:nonzero;stroke:#333333;stroke-width:2;stroke-miterlimit:4;stroke-dasharray:none;stroke-opacity:1"
     id="path82"
     d="M 24.971971,40.054363 C 13.83803,23.902145 11.771359,22.244425 11.771359,16.308244 c 0,-8.1312848 6.587048,-14.7229467 14.712641,-14.7229467 8.125592,0 14.71264,6.5916619 14.71264,14.7229467 0,5.936181 -2.066671,7.593901 -13.200603,23.746119 -0.73066,1.056216 -2.293495,1.056136 -3.024066,0 z M 26.484,22.442804 c 3.385667,0 6.130265,-2.74652 6.130265,-6.13456 0,-3.38804 -2.744598,-6.13456 -6.130265,-6.13456 -3.38566,0 -6.130266,2.74652 -6.130266,6.13456 0,3.38804 2.744606,6.13456 6.130266,6.13456 z" />
  <path
     id="path941"
     d="m 24.466902,21.98877 c -1.150118,-0.353885 -2.772907,-1.902219 -3.395105,-3.239333 -1.032042,-2.217882 -0.659987,-4.512419 1.038151,-6.402479 1.245373,-1.386126 2.581649,-1.972722 4.473275,-1.963668 3.49957,0.01675 6.364932,3.367848 5.816155,6.802111 -0.241738,1.512807 -1.491619,3.361055 -2.832759,4.18891 -0.952552,0.587988 -1.479807,0.736937 -2.771702,0.783001 -0.877459,0.03129 -1.925066,-0.04456 -2.328015,-0.168542 z"
     style="fill:#000000;fill-rule:nonzero;stroke:#333333;stroke-width:0.187;stroke-miterlimit:4;stroke-dasharray:none;stroke-opacity:1" />
  <path
     id="path943"
     d="m 24.660619,23.222376 c -3.278338,-1.037528 -5.273106,-3.649583 -5.268016,-6.898215 0.0034,-2.138257 0.740103,-3.768149 2.382143,-5.269932 3.593492,-3.2865503 8.892364,-2.2502466 11.256863,2.201511 0.437275,0.823279 0.541431,1.411018 0.543769,3.068421 0.0026,1.829403 -0.07494,2.190865 -0.720161,3.357907 -1.642992,2.971764 -5.172668,4.496688 -8.194598,3.540308 z"
     style="fill:#ffffff;fill-opacity:1;fill-rule:nonzero;stroke:#333333;stroke-width:2;stroke-miterlimit:4;stroke-dasharray:none;stroke-opacity:1" />
</svg>
