<?xml version="1.0" encoding="UTF-8" standalone="no"?>
<svg
   xmlns:dc="http://purl.org/dc/elements/1.1/"
   xmlns:cc="http://creativecommons.org/ns#"
   xmlns:rdf="http://www.w3.org/1999/02/22-rdf-syntax-ns#"
   xmlns:svg="http://www.w3.org/2000/svg"
   xmlns="http://www.w3.org/2000/svg"
   xmlns:sodipodi="http://sodipodi.sourceforge.net/DTD/sodipodi-0.dtd"
   xmlns:inkscape="http://www.inkscape.org/namespaces/inkscape"
   height="72.234497"
   width="54.175861"
   inkscape:version="1.0 (4035a4f, 2020-05-01)"
   sodipodi:docname="map-marker-alt-custom.svg"
   id="svg84"
   version="1.1"
   viewBox="0 0 54.175861 72.234497">
  <metadata
     id="metadata90">
    <rdf:RDF>
      <cc:Work
         rdf:about="">
        <dc:format>image/svg+xml</dc:format>
        <dc:type
           rdf:resource="http://purl.org/dc/dcmitype/StillImage" />
        <dc:title></dc:title>
      </cc:Work>
    </rdf:RDF>
  </metadata>
  <defs
     id="defs88" />
  <sodipodi:namedview
     inkscape:current-layer="svg84"
     inkscape:window-maximized="1"
     inkscape:window-y="0"
     inkscape:window-x="0"
     inkscape:cy="34.65246"
     inkscape:cx="6.1611422"
     inkscape:zoom="4"
     showgrid="false"
     id="namedview86"
     inkscape:window-height="1007"
     inkscape:window-width="1920"
     inkscape:pageshadow="2"
     inkscape:pageopacity="0"
     guidetolerance="10"
     gridtolerance="10"
     objecttolerance="10"
     borderopacity="1"
     bordercolor="#666666"
     pagecolor="#ffffff" />
  <path
     style="fill:#800000;stroke-width:0.209323;stroke-miterlimit:4;stroke-dasharray:none"
     id="path82"
     d="M 24.7827,39.874825 C 13.233811,23.132363 11.090118,21.414066 11.090118,15.260962 11.090118,6.8325383 17.922657,0 26.35108,0 c 8.428423,0 15.260961,6.8325383 15.260961,15.260962 0,6.153104 -2.143693,7.871401 -13.692572,24.613863 -0.757891,1.094813 -2.378971,1.09473 -3.136769,0 z m 1.56838,-18.255131 c 3.511847,0 6.358732,-2.846885 6.358732,-6.358732 0,-3.511848 -2.846885,-6.3587333 -6.358732,-6.3587333 -3.511839,0 -6.358733,2.8468853 -6.358733,6.3587333 0,3.511847 2.846894,6.358732 6.358733,6.358732 z" />
</svg>
